<?xml version="1.0" encoding="UTF-8"?>
<svg width="100px" height="99px" viewBox="0 0 100 99" version="1.1" xmlns="http://www.w3.org/2000/svg" xmlns:xlink="http://www.w3.org/1999/xlink" preserveAspectRatio="xMidYMid">
    <title>supabase</title>
    <defs>
        <linearGradient x1="20.8617445%" y1="20.6868812%" x2="63.4256086%" y2="44.0710077%" id="supabase-linearGradient-1">
            <stop stop-color="#249361" offset="0%"></stop>
            <stop stop-color="#3ECF8E" offset="100%"></stop>
        </linearGradient>
        <linearGradient x1="1.99116498%" y1="-13.1584008%" x2="21.4025077%" y2="34.708062%" id="supabase-linearGradient-2">
            <stop stop-color="#000000" offset="0%"></stop>
            <stop stop-color="#000000" stop-opacity="0" offset="100%"></stop>
        </linearGradient>
    </defs>
    <g>
		<path d="M56.1753725,97.0963572 C53.6529783,100.272836 48.5385916,98.5324326 48.4778142,94.4764899 L47.5890881,35.1534317 L87.4778471,35.1534317 C94.7027707,35.1534317 98.7322501,43.4982825 94.2396629,49.1566666 L56.1753725,97.0963572 Z" fill="url(#supabase-linearGradient-1)"></path>
		<path d="M56.1753725,97.0963572 C53.6529783,100.272836 48.5385916,98.5324326 48.4778142,94.4764899 L47.5890881,35.1534317 L87.4778471,35.1534317 C94.7027707,35.1534317 98.7322501,43.4982825 94.2396629,49.1566666 L56.1753725,97.0963572 Z" fill-opacity="0.2" fill="url(#supabase-linearGradient-2)"></path>
		<path d="M39.9528365,1.64059183 C42.4752306,-1.53623987 47.5897056,0.20443438 47.650483,4.26043268 L48.0399347,63.5834026 L8.65038837,63.5834026 C1.42524419,63.5834026 -2.60434991,55.2385519 1.8884579,49.5801677 L39.9528365,1.64059183 Z" fill="#3ECF8E"></path>
    </g>
</svg>
